<?xml version="1.0" encoding="UTF-8" standalone="no"?>
<svg width="255px" height="18px" viewBox="0 0 255 18" version="1.1" xmlns="http://www.w3.org/2000/svg" xmlns:xlink="http://www.w3.org/1999/xlink">
    <!-- Generator: Sketch 3.7 (28169) - http://www.bohemiancoding.com/sketch -->
    <title>Group</title>
    <desc>Created with Sketch.</desc>
    <defs></defs>
    <g id="Page-1" stroke="none" stroke-width="1" fill="none" fill-rule="evenodd">
        <g id="Letter" transform="translate(-44.000000, -152.000000)">
            <g id="Group" transform="translate(44.000000, 152.000000)">
                <path d="M132.179609,8.50740079 C130.576253,5.61358999 127.070594,5.34309795 127.070594,5.34309795 C127.070594,5.34309795 126.682063,4.1584376 126.450837,4.14053663 C126.219611,4.12263566 125.8609,5.31806394 125.8609,5.31806394 C125.8609,5.31806394 125.20586,5.2927945 124.530811,5.74478616 L119,1.19904087e-13 L123.761443,6.61511712 C123.761443,6.61511712 122.818549,7.62232706 122.871824,8.54088894 C122.871824,8.54088894 123.176756,8.0157737 123.476112,8.25225714 L123.361057,8.54445546 C123.361057,8.54445546 123.625148,8.37004938 123.775468,8.48874059 C123.775468,8.48874059 123.684345,9.12877079 123.36328,9.751799 C123.041187,10.374108 121.778345,12.6066438 123.756295,13.3494512 C123.756295,13.3494512 123.966908,13.2426753 124.183605,12.9758277 C124.183605,12.9758277 124.235221,13.2906793 124.47585,13.3716636 C124.716736,13.4528277 125.219287,13.1384342 125.388428,12.7793763 C125.557731,12.4200872 126.116516,11.1291076 127.774822,10.677956 C127.774822,10.677956 127.615364,11.1423241 127.223794,11.6567292 C126.886456,12.1002421 126.369861,13.0090735 126.171822,13.7826688 C126.0614,14.2114365 125.423479,15.4831783 124.942101,15.8230773 C124.940694,15.8207142 129.672897,19.5996723 133.709944,17.2050402 C133.709944,17.2050402 133.873465,11.5637997 132.179609,8.50740079 Z" id="Page-1" fill="#FFCE00"></path>
                <path d="M0.5,11.5 L104.5,11.5" id="Line" stroke="#FFCE00" stroke-linecap="round"></path>
                <path d="M150.5,11.5 L254.5,11.5" id="Line" stroke="#FFCE00" stroke-linecap="round"></path>
            </g>
        </g>
    </g>
</svg>
