<?xml version="1.0" encoding="UTF-8" standalone="no"?>
<svg width="15px" height="18px" viewBox="0 0 15 18" version="1.1" xmlns="http://www.w3.org/2000/svg" xmlns:xlink="http://www.w3.org/1999/xlink">
    <!-- Generator: Sketch 3.7 (28169) - http://www.bohemiancoding.com/sketch -->
    <title>Page 1</title>
    <desc>Created with Sketch.</desc>
    <defs></defs>
    <g id="Page-1" stroke="none" stroke-width="1" fill="none" fill-rule="evenodd">
        <g id="Letter" transform="translate(-163.000000, -152.000000)" fill="#FFCE00">
            <path d="M176.179609,160.507401 C174.576253,157.61359 171.070594,157.343098 171.070594,157.343098 C171.070594,157.343098 170.682063,156.158438 170.450837,156.140537 C170.219611,156.122636 169.8609,157.318064 169.8609,157.318064 C169.8609,157.318064 169.20586,157.292795 168.530811,157.744786 L163,152 L167.761443,158.615117 C167.761443,158.615117 166.818549,159.622327 166.871824,160.540889 C166.871824,160.540889 167.176756,160.015774 167.476112,160.252257 L167.361057,160.544455 C167.361057,160.544455 167.625148,160.370049 167.775468,160.488741 C167.775468,160.488741 167.684345,161.128771 167.36328,161.751799 C167.041187,162.374108 165.778345,164.606644 167.756295,165.349451 C167.756295,165.349451 167.966908,165.242675 168.183605,164.975828 C168.183605,164.975828 168.235221,165.290679 168.47585,165.371664 C168.716736,165.452828 169.219287,165.138434 169.388428,164.779376 C169.557731,164.420087 170.116516,163.129108 171.774822,162.677956 C171.774822,162.677956 171.615364,163.142324 171.223794,163.656729 C170.886456,164.100242 170.369861,165.009074 170.171822,165.782669 C170.0614,166.211436 169.423479,167.483178 168.942101,167.823077 C168.940694,167.820714 173.672897,171.599672 177.709944,169.20504 C177.709944,169.20504 177.873465,163.5638 176.179609,160.507401 Z" id="Page-1"></path>
        </g>
    </g>
</svg>