<?xml version="1.0" encoding="UTF-8"?><!DOCTYPE svg PUBLIC "-//W3C//DTD SVG 1.1//EN" "http://www.w3.org/Graphics/SVG/1.1/DTD/svg11.dtd"><svg xmlns="http://www.w3.org/2000/svg"><symbol id="unicorns" viewBox="0 0 255 18"><title>Group</title><g fill="none" fill-rule="evenodd"><path d="M132.18 8.507c-1.604-2.893-5.11-3.164-5.11-3.164s-.388-1.185-.62-1.202c-.23-.018-.59 1.177-.59 1.177s-.654-.025-1.33.427L119 0l4.761 6.615s-.942 1.007-.89 1.926c0 0 .306-.525.605-.289l-.115.292s.264-.174.414-.055c0 0-.09.64-.412 1.263-.322.622-1.585 2.855.393 3.597 0 0 .21-.106.428-.373 0 0 .051.315.292.396.24.08.743-.234.912-.593.17-.359.729-1.65 2.387-2.101 0 0-.16.464-.551.979-.338.443-.854 1.352-1.052 2.126-.11.428-.749 1.7-1.23 2.04-.001-.002 4.73 3.777 8.768 1.382 0 0 .163-5.641-1.53-8.698z" fill="#FFCE00"/><path d="M.5 11.5h104M150.5 11.5h104" stroke="#FFCE00" stroke-linecap="round"/></g></symbol></svg>